<svg xmlns="http://www.w3.org/2000/svg" viewBox="0 0 512 512">
  <rect width="512" height="512" rx="96" fill="#0d1117"/>
  <rect x="48" y="48" width="512" height="512" rx="96" fill="#3b82f6" transform="translate(-48,-48)"/>
  <!-- Building icon -->
  <rect x="156" y="200" width="200" height="220" rx="8" fill="#1e3a5f"/>
  <rect x="156" y="200" width="200" height="220" rx="8" fill="none" stroke="#93c5fd" stroke-width="8"/>
  <!-- Floors -->
  <line x1="156" y1="260" x2="356" y2="260" stroke="#93c5fd" stroke-width="4" opacity="0.5"/>
  <line x1="156" y1="320" x2="356" y2="320" stroke="#93c5fd" stroke-width="4" opacity="0.5"/>
  <line x1="156" y1="380" x2="356" y2="380" stroke="#93c5fd" stroke-width="4" opacity="0.5"/>
  <!-- Windows -->
  <rect x="180" y="220" width="36" height="28" rx="4" fill="#3b82f6" opacity="0.8"/>
  <rect x="238" y="220" width="36" height="28" rx="4" fill="#3b82f6" opacity="0.8"/>
  <rect x="296" y="220" width="36" height="28" rx="4" fill="#93c5fd" opacity="0.9"/>
  <rect x="180" y="278" width="36" height="28" rx="4" fill="#3b82f6" opacity="0.8"/>
  <rect x="238" y="278" width="36" height="28" rx="4" fill="#93c5fd" opacity="0.9"/>
  <rect x="296" y="278" width="36" height="28" rx="4" fill="#3b82f6" opacity="0.8"/>
  <!-- Door -->
  <rect x="226" y="360" width="60" height="60" rx="4" fill="#1d4ed8"/>
  <!-- Roof accent -->
  <polygon points="256,100 136,210 376,210" fill="#3b82f6" opacity="0.4"/>
  <polygon points="256,120 156,210 356,210" fill="#60a5fa" opacity="0.6"/>
</svg>
